<?xml version="1.0" encoding="UTF-8"?>
<!DOCTYPE svg PUBLIC "-//W3C//DTD SVG 1.1//EN" "http://www.w3.org/Graphics/SVG/1.1/DTD/svg11.dtd">
<svg xmlns="http://www.w3.org/2000/svg" version="1.1" width="192px" height="192px" style="shape-rendering:geometricPrecision; text-rendering:geometricPrecision; image-rendering:optimizeQuality; fill-rule:evenodd; clip-rule:evenodd" xmlns:xlink="http://www.w3.org/1999/xlink">
<g><path style="opacity:0.809" fill="#0b9dcd" d="M 85.5,-0.5 C 95.8333,-0.5 106.167,-0.5 116.5,-0.5C 156.5,9.5 181.5,34.5 191.5,74.5C 191.5,80.5 191.5,86.5 191.5,92.5C 187.023,65.7192 174.356,43.5525 153.5,26C 125.226,6.76806 95.5593,4.43473 64.5,19C 28.7443,41.3909 17.2443,72.8909 30,113.5C 37.8061,129.139 48.9728,141.805 63.5,151.5C 62.635,152.583 61.635,152.749 60.5,152C 31.065,138.327 15.7317,115.161 14.5,82.5C 18.4513,37.8874 42.118,10.2207 85.5,-0.5 Z"/></g>
<g><path style="opacity:0.804" fill="#0b9dcd" d="M -0.5,103.5 C -0.5,92.5 -0.5,81.5 -0.5,70.5C 5.12514,42.5857 20.1251,21.2524 44.5,6.5C 44.8333,6.83333 45.1667,7.16667 45.5,7.5C 11.198,36.9106 0.69796,73.2439 14,116.5C 32.5991,156.049 63.4325,172.216 106.5,165C 141.244,152.408 158.577,127.575 158.5,90.5C 159.5,90.5 160.5,90.5 161.5,90.5C 165.336,130.346 149.003,158.179 112.5,174C 70.8358,184.781 37.6691,172.614 13,137.5C 6.6109,126.816 2.1109,115.483 -0.5,103.5 Z"/></g>
<g><path style="opacity:0.808" fill="#0b9dcd" d="M 106.5,191.5 C 96.1667,191.5 85.8333,191.5 75.5,191.5C 64.8889,188.85 54.5556,185.184 44.5,180.5C 44.281,179.325 44.6143,178.325 45.5,177.5C 79.9596,191.505 111.96,187.338 141.5,165C 172.376,134.206 178.543,99.0398 160,59.5C 140.254,31.0484 113.421,20.5484 79.5,28C 72.7107,30.541 66.044,33.3743 59.5,36.5C 59.1667,36.1667 58.8333,35.8333 58.5,35.5C 74.3503,21.1636 93.017,15.3303 114.5,18C 149.426,25.5919 171.259,46.7585 180,81.5C 186.3,123.718 171.8,156.552 136.5,180C 126.798,184.951 116.798,188.784 106.5,191.5 Z"/></g>
<g><path style="opacity:0.718" fill="#0b9dcd" d="M 96.5,34.5 C 129.298,35.5575 149.965,51.8909 158.5,83.5C 158.176,85.5689 157.342,85.9023 156,84.5C 146.582,55.7505 126.749,41.9171 96.5,43C 67.158,48.8768 52.9913,66.7102 54,96.5C 56.6494,115.182 66.8161,127.515 84.5,133.5C 84.6495,134.552 84.4828,135.552 84,136.5C 56.6952,127.924 44.3619,109.258 47,80.5C 51.5813,60.9184 63.0813,47.0851 81.5,39C 86.6808,37.6756 91.6808,36.1756 96.5,34.5 Z"/></g>
<g><path style="opacity:0.719" fill="#0b9dcd" d="M 57.5,46.5 C 58.3764,46.3691 59.0431,46.7025 59.5,47.5C 38.6021,72.6602 37.4355,98.6602 56,125.5C 75.0559,144.581 96.2226,147.414 119.5,134C 134.788,121.638 140.455,105.805 136.5,86.5C 137.5,86.5 138.5,86.5 139.5,86.5C 146.015,118.653 133.681,139.486 102.5,149C 74.9156,151.958 54.7489,141.125 42,116.5C 32.0176,89.767 37.1843,66.4336 57.5,46.5 Z"/></g>
<g><path style="opacity:0.719" fill="#0b9dcd" d="M 98.5,46.5 C 127.676,46.8394 145.843,61.1727 153,89.5C 156.295,119.085 144.795,140.585 118.5,154C 107.126,158.536 95.4594,159.536 83.5,157C 80.3637,156.685 77.6971,155.518 75.5,153.5C 97.4912,157.542 116.658,151.876 133,136.5C 148.246,116.774 150.246,95.7739 139,73.5C 126.017,55.838 108.85,49.6713 87.5,55C 81.5103,57.6597 75.8436,60.8264 70.5,64.5C 70.1667,64.1667 69.8333,63.8333 69.5,63.5C 77.2465,54.4634 86.9131,48.7968 98.5,46.5 Z"/></g>
</svg>
